<svg width="140" height="140" viewBox="0 0 140 140" fill="none" xmlns="http://www.w3.org/2000/svg">
  <!-- Fond -->
  <rect width="140" height="140" rx="24" fill="#F9FAFB"/>
  <!-- Blason -->
  <path d="M40 20H100C104 20 107 23 107 27V74C107 88 97 101 80 108C73 111 67 113 70 113C60 110 43 103 35 92C31 86 29 79 29 73V27C29 23 32 20 36 20H40Z" fill="white" stroke="#065F46" stroke-width="3"/>
  <!-- Bandes verticales vertes -->
  <path d="M40 22H53V100C48 98 43 95 40 92V22Z" fill="#16A34A"/>
  <path d="M87 22H100V92C97 95 92 98 87 100V22Z" fill="#16A34A"/>
  <!-- Bande centrale claire -->
  <rect x="53" y="22" width="34" height="78" fill="#ECFDF5"/>
  <!-- Bande horizontale club -->
  <rect x="35" y="48" width="72" height="18" fill="#065F46" />
  <text x="71" y="61" text-anchor="middle" fill="#F9FAFB" font-size="12" font-family="system-ui, -apple-system, BlinkMacSystemFont, 'Segoe UI', sans-serif" font-weight="700">
    KAF GLOBAL
  </text>
  <!-- Ballon -->
  <circle cx="71" cy="86" r="14" fill="#F9FAFB" stroke="#111827" stroke-width="1.5"/>
  <circle cx="71" cy="86" r="4" fill="#111827"/>
  <path d="M71 82L67 84L68 88L71 90L74 88L75 84L71 82Z" fill="#F9FAFB"/>
  <path d="M71 72V78M71 94V100M57 86H63M79 86H85M61 77L66 80M77 92L82 95M61 95L66 92M77 80L82 77" stroke="#111827" stroke-width="1"/>
  <!-- Texte bas -->
  <text x="71" y="116" text-anchor="middle" fill="#065F46" font-size="10" font-family="system-ui, -apple-system, BlinkMacSystemFont, 'Segoe UI', sans-serif" font-weight="600">
    KAF GLOBAL FOOT
  </text>
  <text x="71" y="127" text-anchor="middle" fill="#6B7280" font-size="8" font-family="system-ui, -apple-system, BlinkMacSystemFont, 'Segoe UI', sans-serif">
    Kafountine · Casamance
  </text>
</svg>

